# xmcd
#
# Track frame offsets: 
#        150
#        14154
#        34889
#        48293
#        63870
#        80854
#        102076
#        114240
#        135748
#        153157
#        171613
#        187874
#        205625
#
# Disc length: 3047 seconds
#
# Revision: 3
# Processed by: cddbd v1.5.2PL0 Copyright (c) Steve Scherf et al.
# Submitted via: ExactAudioCopyFreeDBPlugin 1.0
#
DISCID=aa0be50d
DTITLE=Russell Morris - Van Diemen's Land
DYEAR=2014
DGENRE=Folk/Rock
TTITLE0=Dexter's Big Tin Can
TTITLE1=Van Diemen's Land
TTITLE2=Sweetest Thing
TTITLE3=Birdsville
TTITLE4=Breaker Morant
TTITLE5=Loch Ard Gorge
TTITLE6=Burning Rodney
TTITLE7=Witch Of Kings Cross
TTITLE8=Eureka
TTITLE9=Sandakan
TTITLE10=Slide On The River
TTITLE11=Lucy McBride
TTITLE12=Bendigo Rock
EXTD=Release year: 2014\nRelease country: AU\nRelease label: Fanfare\n
EXTD=Release catalog#: FANFARE142\nBarcode: 602537707270
EXTT0=
EXTT1=
EXTT2=
EXTT3=
EXTT4=
EXTT5=
EXTT6=
EXTT7=
EXTT8=
EXTT9=
EXTT10=
EXTT11=
EXTT12=
PLAYORDER=
